<svg width="41" height="41" viewBox="0 0 41 41" fill="none" xmlns="http://www.w3.org/2000/svg">
<g clip-path="url(#clip0_406_2196)">
<path d="M20.9263 40.3511C31.972 40.3511 40.9263 31.3968 40.9263 20.3511C40.9263 9.30538 31.972 0.351074 20.9263 0.351074C9.88058 0.351074 0.92627 9.30538 0.92627 20.3511C0.92627 31.3968 9.88058 40.3511 20.9263 40.3511Z" fill="white"/>
<path d="M25.9545 21.1336H22.3858V34.2079H16.9788V21.1336H14.4072V16.5388H16.9788V13.5654C16.9788 11.4392 17.9888 8.10962 22.4339 8.10962L26.439 8.12638V12.5864H23.533C23.0564 12.5864 22.3861 12.8246 22.3861 13.8389V16.5431H26.4269L25.9545 21.1336Z" fill="#385071"/>
</g>
<defs>
<clipPath id="clip0_406_2196">
<rect width="40" height="40" fill="white" transform="translate(0.92627 0.351074)"/>
</clipPath>
</defs>
</svg>
