<svg xmlns="http://www.w3.org/2000/svg" viewBox="0 0 410.8 76.5"><defs><style>.cls-1{fill:#fff;}.cls-2{fill:#a31219;}</style></defs><g id="Layer_2" data-name="Layer 2"><g id="Capa_1" data-name="Capa 1"><path class="cls-1" d="M230.9,4.7l.3,6.5h-.8a13.6,13.6,0,0,0-.6-2.4A4.2,4.2,0,0,0,228.1,7a5.6,5.6,0,0,0-2.8-.5h-3.8V27.6c0,1.7.1,2.7.5,3.1a3,3,0,0,0,2.4.9h1v.7H213.6v-.7h1a3,3,0,0,0,2.5-1.1,6,6,0,0,0,.4-2.9V6.5h-3.3l-2.7.2a4.5,4.5,0,0,0-1.9,1.5,6.6,6.6,0,0,0-.9,3H208l.3-6.5Z"/><path class="cls-1" d="M233.8,20.7a8.8,8.8,0,0,0,2,6.5,6,6,0,0,0,4.8,2.4,4.8,4.8,0,0,0,3.1-1,7.4,7.4,0,0,0,2.3-3.5l.6.4a9.5,9.5,0,0,1-2.5,5.1,6.5,6.5,0,0,1-5.1,2.3,7.8,7.8,0,0,1-5.8-2.6,10.5,10.5,0,0,1-2.3-7q0-4.8,2.4-7.5a8,8,0,0,1,6.2-2.7,6.6,6.6,0,0,1,5.1,2.1,7.3,7.3,0,0,1,2,5.5Zm0-1.1h8.6A10.9,10.9,0,0,0,242,17a5.5,5.5,0,0,0-1.6-1.8,3.7,3.7,0,0,0-2.1-.6,4.1,4.1,0,0,0-3,1.3,5.5,5.5,0,0,0-1.5,3.7"/><path class="cls-1" d="M265,25.3a9.8,9.8,0,0,1-3,5.6,7.3,7.3,0,0,1-4.9,2,7.1,7.1,0,0,1-5.5-2.7,10.4,10.4,0,0,1-2.4-7.2,9.7,9.7,0,0,1,2.7-7.1,8,8,0,0,1,6.2-2.8,6.4,6.4,0,0,1,4.5,1.5,3.9,3.9,0,0,1,1.8,3,2.1,2.1,0,0,1-.5,1.3,2,2,0,0,1-1.4.4,2.1,2.1,0,0,1-1.8-.7,3.2,3.2,0,0,1-.4-1.7,3.1,3.1,0,0,0-.9-1.9,2.7,2.7,0,0,0-1.9-.6,4,4,0,0,0-3.3,1.5,8.2,8.2,0,0,0-1.6,5.3,10.8,10.8,0,0,0,1.6,6,5,5,0,0,0,4.4,2.5,5.5,5.5,0,0,0,3.6-1.3,9.9,9.9,0,0,0,2.2-3.4Z"/><path class="cls-1" d="M273.1,17c2.1-2.6,4.2-3.9,6.2-3.9a4.5,4.5,0,0,1,2.6.8,5.6,5.6,0,0,1,1.8,2.5,12.1,12.1,0,0,1,.4,3.8v7.9a6.2,6.2,0,0,0,.3,2.4,1.4,1.4,0,0,0,.7.8,3.9,3.9,0,0,0,1.8.3v.8h-9.2v-.8h.4a2.6,2.6,0,0,0,1.8-.4,1.4,1.4,0,0,0,.7-1.1,8.7,8.7,0,0,0,.1-2V20.5a9.1,9.1,0,0,0-.6-3.8,2.5,2.5,0,0,0-2.2-1.1c-1.7,0-3.2.9-4.8,2.6v9.9a6.3,6.3,0,0,0,.2,2.4c.2.4.4.7.8.8a4.3,4.3,0,0,0,2,.3v.8h-9.3v-.8h.4a2.3,2.3,0,0,0,2-.7,5.8,5.8,0,0,0,.5-2.8V21.2a27.8,27.8,0,0,0-.2-4.1,1.9,1.9,0,0,0-.4-1,1.4,1.4,0,0,0-.9-.3l-1.3.3-.4-.7,5.7-2.3h.9V17Z"/><path class="cls-1" d="M297.6,13.1a8.4,8.4,0,0,1,6.8,3.2,10.5,10.5,0,0,1,2.2,6.4,11.8,11.8,0,0,1-1.2,5,9.3,9.3,0,0,1-3.4,3.9,8.2,8.2,0,0,1-4.6,1.3,7.6,7.6,0,0,1-6.7-3.4,10.4,10.4,0,0,1-2.1-6.3,11.9,11.9,0,0,1,1.2-5.1,9.1,9.1,0,0,1,3.4-3.8,8.6,8.6,0,0,1,4.4-1.2m-.7,1.3a3.5,3.5,0,0,0-2.1.7,4.1,4.1,0,0,0-1.8,2.2,12.2,12.2,0,0,0-.7,4.2,14.2,14.2,0,0,0,1.7,7,4.6,4.6,0,0,0,4.2,2.9,4.1,4.1,0,0,0,3.3-1.6c.8-1.1,1.3-2.9,1.3-5.6s-.7-5.9-2.2-7.8a4.4,4.4,0,0,0-3.7-2"/><path class="cls-1" d="M315.7,3.4V28.1a6.2,6.2,0,0,0,.3,2.4,2,2,0,0,0,.8.8,4.1,4.1,0,0,0,1.9.3v.7h-9.1v-.7l1.7-.2a1.8,1.8,0,0,0,.8-.9,6.9,6.9,0,0,0,.2-2.4V11.2a32.6,32.6,0,0,0-.1-3.9c-.1-.5-.2-.8-.5-1a1.5,1.5,0,0,0-.8-.2l-1.3.3-.3-.7,5.5-2.3Z"/><path class="cls-1" d="M330,13.1a8.4,8.4,0,0,1,6.8,3.2,9.9,9.9,0,0,1,2.2,6.3,11.9,11.9,0,0,1-1.2,5.1,9.1,9.1,0,0,1-3.3,3.9,8.5,8.5,0,0,1-4.7,1.3,7.7,7.7,0,0,1-6.7-3.4,10.4,10.4,0,0,1-2.1-6.3,10.7,10.7,0,0,1,1.3-5.1,8.3,8.3,0,0,1,3.3-3.8,8.8,8.8,0,0,1,4.4-1.2m-.6,1.3a3.8,3.8,0,0,0-2.2.7,4.6,4.6,0,0,0-1.8,2.2,12.5,12.5,0,0,0-.6,4.2,14.2,14.2,0,0,0,1.6,7c1.1,2,2.5,2.9,4.3,2.9a3.8,3.8,0,0,0,3.2-1.6c.9-1.1,1.3-2.9,1.3-5.6a12.9,12.9,0,0,0-2.1-7.8,4.5,4.5,0,0,0-3.7-2m5.5-10.3-6,7h-.7l2.1-7Z"/><path class="cls-1" d="M346.7,25.5a6.5,6.5,0,0,1-2.6-2.3,6.5,6.5,0,0,1,1.2-8.1,7.4,7.4,0,0,1,5.3-2,8.6,8.6,0,0,1,4.6,1.3h5.2a1.5,1.5,0,0,1,.1.7c0,.3,0,.6-.1.7s-.1.1-.2.2h-3.5a6,6,0,0,1,1.2,3.8,6.2,6.2,0,0,1-2,4.5,7.8,7.8,0,0,1-5.4,1.8,9.5,9.5,0,0,1-2.8-.4,4.7,4.7,0,0,0-1.2,1.4,1.9,1.9,0,0,0-.3.9.9.9,0,0,0,.3.7,3.2,3.2,0,0,0,1.3.5h2.9l5.4.3a5.9,5.9,0,0,1,3.1,1.4,4.2,4.2,0,0,1,1.1,2.9,5.8,5.8,0,0,1-2.2,4.3,11.7,11.7,0,0,1-8.2,2.9,12.6,12.6,0,0,1-6.7-1.7,2.8,2.8,0,0,1-1.5-2.2,2.9,2.9,0,0,1,.2-.9,10.6,10.6,0,0,1,1.4-2.1l2.1-2.2a4.9,4.9,0,0,1-1.5-1.2,1.5,1.5,0,0,1-.4-1.1,4.5,4.5,0,0,1,.5-1.7,16.4,16.4,0,0,1,2.7-2.7m-.2,6.9a7.7,7.7,0,0,0-1.4,1.9,3.7,3.7,0,0,0-.5,1.6c0,.7.4,1.2,1.2,1.7a11.5,11.5,0,0,0,5.9,1.3,9.7,9.7,0,0,0,5.4-1.3,3.8,3.8,0,0,0,1.7-2.8,1.5,1.5,0,0,0-1-1.5,21.2,21.2,0,0,0-4.2-.5c-3.1-.1-5.5-.2-7.1-.4m3.7-18.3a3.2,3.2,0,0,0-2.5,1.2,5.5,5.5,0,0,0-1,3.7,8.2,8.2,0,0,0,1.4,5,3.2,3.2,0,0,0,2.7,1.3,3.2,3.2,0,0,0,2.5-1.2c.7-.7,1-1.9,1-3.6a8.2,8.2,0,0,0-1.4-5,3.3,3.3,0,0,0-2.7-1.4"/><path class="cls-1" d="M369,13.1v15a6.2,6.2,0,0,0,.3,2.4,1.4,1.4,0,0,0,.7.8,3.6,3.6,0,0,0,1.8.3v.7h-9v-.7l1.8-.2a1.6,1.6,0,0,0,.7-.9,6.2,6.2,0,0,0,.3-2.4V20.9a17.5,17.5,0,0,0-.2-3.9,1.9,1.9,0,0,0-.4-.9,1.1,1.1,0,0,0-.8-.3l-1.4.3-.3-.7,5.6-2.3Zm-1.7-9.7a2,2,0,0,1,1.5.6,2,2,0,0,1,.6,1.4,2.1,2.1,0,1,1-4.2,0,2,2,0,0,1,.6-1.4,2,2,0,0,1,1.5-.6"/><path class="cls-1" d="M390,25.3a9.8,9.8,0,0,1-3,5.6,6.9,6.9,0,0,1-4.8,2,7,7,0,0,1-5.5-2.7,10.4,10.4,0,0,1-2.4-7.2,10,10,0,0,1,2.6-7.1,8.1,8.1,0,0,1,6.3-2.8,6.8,6.8,0,0,1,4.5,1.5,3.9,3.9,0,0,1,1.8,3,2.1,2.1,0,0,1-.5,1.3,2.1,2.1,0,0,1-1.4.4,2.1,2.1,0,0,1-1.8-.7,3.1,3.1,0,0,1-.5-1.7,3,3,0,0,0-.8-1.9,3.2,3.2,0,0,0-2-.6,4.3,4.3,0,0,0-3.3,1.5,8.2,8.2,0,0,0-1.6,5.3,10.8,10.8,0,0,0,1.6,6,5.3,5.3,0,0,0,8,1.2,8.7,8.7,0,0,0,2.2-3.4Z"/><path class="cls-1" d="M401.8,13.1a8.4,8.4,0,0,1,6.8,3.2,10.3,10.3,0,0,1,.9,11.4,8.5,8.5,0,0,1-3.3,3.9,8.2,8.2,0,0,1-4.6,1.3,7.6,7.6,0,0,1-6.7-3.4,10.4,10.4,0,0,1-2.1-6.3,11.9,11.9,0,0,1,1.2-5.1,9.1,9.1,0,0,1,3.4-3.8,8.6,8.6,0,0,1,4.4-1.2m-.7,1.3a3.5,3.5,0,0,0-2.1.7,4.1,4.1,0,0,0-1.8,2.2,12.2,12.2,0,0,0-.7,4.2,14.2,14.2,0,0,0,1.7,7,4.6,4.6,0,0,0,4.2,2.9,4.1,4.1,0,0,0,3.3-1.6c.8-1.1,1.3-2.9,1.3-5.6s-.7-5.9-2.2-7.8a4.4,4.4,0,0,0-3.7-2"/><path class="cls-1" d="M219.7,70a9.4,9.4,0,0,1-2.4,1.8,7,7,0,0,1-2.5.5,6.2,6.2,0,0,1-4.7-2.2,8.5,8.5,0,0,1-2-5.8,10.4,10.4,0,0,1,2.2-6.5,7.1,7.1,0,0,1,5.8-2.9,5.2,5.2,0,0,1,3.6,1.4V53.2a19.3,19.3,0,0,0-.2-3.4,1.9,1.9,0,0,0-.4-.9l-.7-.2-1.3.3-.2-.7,4.9-2h.8v19c0,1.9.1,3.1.1,3.5a1.3,1.3,0,0,0,.5.9.9.9,0,0,0,.7.3l1.3-.3.2.6-4.9,2h-.8V70Zm0-1.3V60.3a5.2,5.2,0,0,0-.7-2.2,3.6,3.6,0,0,0-1.4-1.6,4.1,4.1,0,0,0-1.7-.5,4,4,0,0,0-2.9,1.4,8.2,8.2,0,0,0-1.6,5.5,8.2,8.2,0,0,0,1.6,5.5,4.3,4.3,0,0,0,3.5,1.9,4.5,4.5,0,0,0,3.2-1.6"/><path class="cls-1" d="M229.2,61.6a8.5,8.5,0,0,0,1.8,5.7,5.4,5.4,0,0,0,4.2,2.1,4.7,4.7,0,0,0,2.8-.9,7.1,7.1,0,0,0,2-3l.5.3a8,8,0,0,1-2.2,4.5,5.6,5.6,0,0,1-4.5,2,6.4,6.4,0,0,1-5.1-2.3,8.8,8.8,0,0,1-2.1-6.2c0-2.8.7-5,2.2-6.5a6.8,6.8,0,0,1,5.4-2.4,5.8,5.8,0,0,1,4.5,1.8,6.7,6.7,0,0,1,1.8,4.9Zm0-1h7.6a8.8,8.8,0,0,0-.4-2.3,3.2,3.2,0,0,0-1.3-1.5,3.3,3.3,0,0,0-1.9-.6,3.6,3.6,0,0,0-2.6,1.1,5,5,0,0,0-1.4,3.3"/><path class="cls-1" d="M272.9,47l.5,8.2h-.5a10.9,10.9,0,0,0-3.2-5.3,7.8,7.8,0,0,0-5-1.7,8,8,0,0,0-4.3,1.3,7.8,7.8,0,0,0-3.1,3.9,16.5,16.5,0,0,0-1.1,6.7,14.2,14.2,0,0,0,1,5.7,7.8,7.8,0,0,0,3.2,3.7,8.6,8.6,0,0,0,4.8,1.3,8.2,8.2,0,0,0,4.2-1,14.9,14.9,0,0,0,4-4l.5.3a12.6,12.6,0,0,1-4.2,4.8,10.9,10.9,0,0,1-5.8,1.5,11.2,11.2,0,0,1-9.4-4.5,12.9,12.9,0,0,1-2.4-7.8,13.5,13.5,0,0,1,1.6-6.7A11.6,11.6,0,0,1,264.4,47a10.8,10.8,0,0,1,5.2,1.3l1.1.4a1.2,1.2,0,0,0,.8-.4,4,4,0,0,0,.7-1.3Z"/><path class="cls-1" d="M284.4,54.9a7.5,7.5,0,0,1,6,2.8,8.8,8.8,0,0,1,1.9,5.6,10.5,10.5,0,0,1-1,4.5,7.7,7.7,0,0,1-3,3.4,8.1,8.1,0,0,1-4.1,1.1,7.1,7.1,0,0,1-5.9-2.9,9.6,9.6,0,0,1-1.8-5.6,9.3,9.3,0,0,1,1.1-4.5,7.3,7.3,0,0,1,2.9-3.3,7.9,7.9,0,0,1,3.9-1.1m-.5,1.2a3.7,3.7,0,0,0-2,.5,4.6,4.6,0,0,0-1.5,2,9.9,9.9,0,0,0-.6,3.7,13.1,13.1,0,0,0,1.4,6.1c1,1.8,2.2,2.6,3.8,2.6a3.5,3.5,0,0,0,2.9-1.4c.7-.9,1.1-2.6,1.1-4.9a11.1,11.1,0,0,0-1.9-6.9,3.6,3.6,0,0,0-3.2-1.7"/><path class="cls-1" d="M305.3,54.9v5.6h-.5a8.6,8.6,0,0,0-1.8-3.6,4,4,0,0,0-2.7-.9,3,3,0,0,0-2,.6,1.9,1.9,0,0,0-.8,1.5,2.5,2.5,0,0,0,.6,1.7,6.2,6.2,0,0,0,2.2,1.6l2.6,1.3c2.5,1.1,3.7,2.7,3.7,4.6a4.8,4.8,0,0,1-1.7,3.7,6,6,0,0,1-3.8,1.3,11.8,11.8,0,0,1-3.5-.5h-.9a.8.8,0,0,0-.7.4h-.6V66.2h.6a6.5,6.5,0,0,0,1.9,3.8,5,5,0,0,0,3.2,1.3,2.8,2.8,0,0,0,2-.8,1.9,1.9,0,0,0,.8-1.7,3.2,3.2,0,0,0-.8-2.1,17.3,17.3,0,0,0-3.5-2.1,9.6,9.6,0,0,1-3.4-2.3,3.8,3.8,0,0,1-.8-2.6,4.2,4.2,0,0,1,1.4-3.4,4.9,4.9,0,0,1,3.6-1.4,7.4,7.4,0,0,1,2.3.4l1.2.3h.5l.4-.6Z"/><path class="cls-1" d="M313.8,50v5.4h3.8v1.2h-3.8V67.3c0,1.1.1,1.8.5,2.2a1.6,1.6,0,0,0,1.1.5,2.7,2.7,0,0,0,1.2-.3,2.3,2.3,0,0,0,.8-1.1h.7a5.6,5.6,0,0,1-1.7,2.6,4,4,0,0,1-2.4.9,2.4,2.4,0,0,1-1.6-.5,2.2,2.2,0,0,1-1.2-1.3,5.6,5.6,0,0,1-.4-2.6V56.6h-2.6V56a4.9,4.9,0,0,0,2-1.3,13.7,13.7,0,0,0,1.9-2.2,12.6,12.6,0,0,0,1.1-2.5Z"/><path class="cls-1" d="M328.5,69.5l-3.2,2.3a4.5,4.5,0,0,1-2,.4,3.5,3.5,0,0,1-2.8-1.2,3.9,3.9,0,0,1-1.1-3,3.5,3.5,0,0,1,.5-2.1,6,6,0,0,1,2.6-2.3,36.5,36.5,0,0,1,6-2.7v-.6c0-1.7-.2-2.8-.8-3.4a2.7,2.7,0,0,0-2.2-.9,2.4,2.4,0,0,0-1.8.6A1.7,1.7,0,0,0,323,58v1a1.7,1.7,0,0,1-.4,1.3,1.4,1.4,0,0,1-1.1.5,1.6,1.6,0,0,1-1.1-.5A1.7,1.7,0,0,1,320,59a3.6,3.6,0,0,1,1.6-2.8,6.4,6.4,0,0,1,4.4-1.3,9.2,9.2,0,0,1,3.6.7,3.4,3.4,0,0,1,1.5,1.8,9.5,9.5,0,0,1,.4,3.1V69a1.5,1.5,0,0,0,.3.7l.5.2h.5l1.5-1.3v1c-1.4,1.8-2.6,2.7-3.9,2.7a1.6,1.6,0,0,1-1.3-.6,2.9,2.9,0,0,1-.6-2.1m0-1.2V62L325,63.5a7.1,7.1,0,0,0-2,1.7,3.3,3.3,0,0,0-.6,1.9,3.2,3.2,0,0,0,.7,2.2,2.7,2.7,0,0,0,1.8.8q1.4,0,3.6-1.8"/><path class="cls-1" d="M368.4,71.8h-6.5l-8.2-11.3h-2.6v7.1a5.2,5.2,0,0,0,.5,2.8,2.9,2.9,0,0,0,2.1.8h.9v.6H344.2v-.6h.9a2.6,2.6,0,0,0,2.2-1,5.1,5.1,0,0,0,.4-2.6V51.8a5,5,0,0,0-.5-2.8,2.5,2.5,0,0,0-2.1-.8h-.9v-.7H353a20.9,20.9,0,0,1,5.8.6,6.4,6.4,0,0,1,3.1,2.1,5.7,5.7,0,0,1-.2,7.5,8,8,0,0,1-4.5,2.3l5,7a13.5,13.5,0,0,0,3,3.2,8.6,8.6,0,0,0,3.2,1v.6ZM351.1,59.4h1a7.9,7.9,0,0,0,5.2-1.5,4.8,4.8,0,0,0,1.8-3.9,5,5,0,0,0-5.2-5.1l-2.8.3V59.4Z"/><path class="cls-1" d="M374.9,54.9V68.1a5,5,0,0,0,.2,2.1,1.8,1.8,0,0,0,.7.8l1.6.2v.6h-8v-.6A5.1,5.1,0,0,0,371,71a1.2,1.2,0,0,0,.6-.8,4.8,4.8,0,0,0,.3-2.1V61.8a22.8,22.8,0,0,0-.2-3.5,1.5,1.5,0,0,0-.4-.8l-.7-.2-1.2.3-.3-.7,5-2Zm-1.5-8.6a1.8,1.8,0,0,1,1.3.6,1.7,1.7,0,0,1,.5,1.2,1.9,1.9,0,0,1-.5,1.3,1.8,1.8,0,0,1-1.3.6,2.1,2.1,0,0,1-1.9-1.9,1.4,1.4,0,0,1,.6-1.2,1.6,1.6,0,0,1,1.3-.6"/><path class="cls-1" d="M393.4,65.6a9.2,9.2,0,0,1-2.6,5,6.2,6.2,0,0,1-4.3,1.7,6.5,6.5,0,0,1-4.9-2.3,9.3,9.3,0,0,1-2.1-6.4,8.9,8.9,0,0,1,2.3-6.3,7.6,7.6,0,0,1,5.6-2.4,5.6,5.6,0,0,1,3.9,1.3,3.3,3.3,0,0,1,1.6,2.7,1.6,1.6,0,0,1-.5,1.1,1.9,1.9,0,0,1-1.2.4,1.9,1.9,0,0,1-1.6-.7,3.4,3.4,0,0,1-.4-1.5,2.2,2.2,0,0,0-.7-1.6,2.3,2.3,0,0,0-1.7-.5,3.5,3.5,0,0,0-2.9,1.3,7,7,0,0,0-1.5,4.7,9.3,9.3,0,0,0,1.5,5.2,4.3,4.3,0,0,0,3.9,2.2,4.4,4.4,0,0,0,3.1-1.1,9.2,9.2,0,0,0,2-3.1Z"/><path class="cls-1" d="M405,69.5l-3.2,2.3a4.6,4.6,0,0,1-2.1.4,3.8,3.8,0,0,1-2.8-1.2,4.2,4.2,0,0,1-1.1-3,3.5,3.5,0,0,1,.6-2.1,6.3,6.3,0,0,1,2.5-2.3,38.6,38.6,0,0,1,6.1-2.7v-.6a5.4,5.4,0,0,0-.8-3.4,2.9,2.9,0,0,0-2.3-.9,2.4,2.4,0,0,0-1.7.6,1.7,1.7,0,0,0-.7,1.4v1a1.7,1.7,0,0,1-.4,1.3,1.6,1.6,0,0,1-1.1.5,1.4,1.4,0,0,1-1.1-.5,1.7,1.7,0,0,1-.4-1.3,3.8,3.8,0,0,1,1.5-2.8,6.9,6.9,0,0,1,4.5-1.3,9.6,9.6,0,0,1,3.6.7,3.4,3.4,0,0,1,1.5,1.8,10.4,10.4,0,0,1,.3,3.1v5.6c0,1.6.1,2.6.1,2.9a1.5,1.5,0,0,0,.3.7l.5.2h.5l1.5-1.3v1q-2.1,2.7-3.9,2.7a1.8,1.8,0,0,1-1.4-.6,3.6,3.6,0,0,1-.5-2.1m0-1.2V62l-3.5,1.5a7.7,7.7,0,0,0-2.1,1.7,3.4,3.4,0,0,0,.2,4.1,2.5,2.5,0,0,0,1.8.8q1.4,0,3.6-1.8"/><path class="cls-1" d="M52.5,6.1,53.1,21H51.3a16.5,16.5,0,0,0-1.4-5.6,9.2,9.2,0,0,0-3.8-4,12.8,12.8,0,0,0-6.3-1.3H30.9V58.6c0,3.9.4,6.4,1.2,7.3a7.1,7.1,0,0,0,5.5,2h2.2v1.7H12.9V67.9h2.3q4.1,0,5.7-2.4c.7-1,1-3.3,1-6.9V10.1H14.3c-3,0-5.1.2-6.3.7a9,9,0,0,0-4.2,3.4,14,14,0,0,0-2,6.8H0L.8,6.1Z"/><path class="cls-1" d="M71.2,9.6v25H85.3c3.6,0,6-.5,7.2-1.6s2.5-4,2.7-7.6h1.7V47.6H95.2a31.8,31.8,0,0,0-1.3-6A6.5,6.5,0,0,0,91.1,39a14,14,0,0,0-5.8-.9H71.2V59c0,2.9.1,4.6.4,5.2a2.5,2.5,0,0,0,1.3,1.4,7.2,7.2,0,0,0,3.6.6H87.2a28.4,28.4,0,0,0,7.8-.8,12.5,12.5,0,0,0,4.7-2.9,38.1,38.1,0,0,0,5.9-8.8h1.9L102,69.6H53.2V67.9h2.3a9.1,9.1,0,0,0,4.2-1.1,3.6,3.6,0,0,0,2-2.2,20.4,20.4,0,0,0,.6-6.2V17.2c0-4-.4-6.5-1.3-7.5s-2.9-1.8-5.5-1.8H53.2V6.1h48.9l.6,14h-1.8c-.6-3.3-1.3-5.7-2.1-6.9a7.5,7.5,0,0,0-3.6-2.9c-1.2-.5-3.4-.7-6.6-.7Z"/><path class="cls-1" d="M162.9,4.7l1.5,21.6h-1.5c-1.9-6.5-4.7-11.1-8.3-14a21.6,21.6,0,0,0-24.1-1c-3.4,2.1-6.1,5.5-8,10.2S119.6,32,119.6,39a37.8,37.8,0,0,0,2.7,14.9,21.4,21.4,0,0,0,8.3,9.7,24.2,24.2,0,0,0,12.6,3.3A21.1,21.1,0,0,0,154,64.3c3.2-1.8,6.6-5.3,10.4-10.5l1.4,1q-4.7,8.4-11.1,12.3a27.9,27.9,0,0,1-15,3.9c-10.5,0-18.6-3.9-24.4-11.7a33.3,33.3,0,0,1-6.4-20.4,36.8,36.8,0,0,1,4.2-17.5A30.2,30.2,0,0,1,124.8,9.1,31.3,31.3,0,0,1,141,4.7a30,30,0,0,1,13.5,3.4,7.3,7.3,0,0,0,2.8,1.1,3.1,3.1,0,0,0,2.2-.9,7.6,7.6,0,0,0,1.7-3.6Z"/><rect class="cls-2" x="187.4" width="2" height="76.48"/></g></g></svg>