<svg width="41" height="41" viewBox="0 0 41 41" fill="none" xmlns="http://www.w3.org/2000/svg">
<path d="M20.9263 40.3511C31.972 40.3511 40.9263 31.3968 40.9263 20.3511C40.9263 9.30538 31.972 0.351074 20.9263 0.351074C9.88058 0.351074 0.92627 9.30538 0.92627 20.3511C0.92627 31.3968 9.88058 40.3511 20.9263 40.3511Z" fill="#55ACEE"/>
<path d="M33.1783 14.724C32.3212 15.104 31.3992 15.3611 30.4323 15.4759C31.4195 14.8844 32.1771 13.9485 32.5347 12.8316C31.611 13.3795 30.5874 13.7771 29.499 13.9913C28.6269 13.0626 27.3845 12.4822 26.0087 12.4822C23.369 12.4822 21.2281 14.6231 21.2281 17.2627C21.2281 17.6374 21.2705 18.0022 21.3525 18.3523C17.3795 18.153 13.8567 16.2499 11.4987 13.3567C11.0873 14.0626 10.8513 14.8844 10.8513 15.7604C10.8513 17.4185 11.6959 18.8824 12.9779 19.7395C12.1946 19.7149 11.457 19.4999 10.8128 19.1409C10.8124 19.1612 10.8124 19.1815 10.8124 19.2015C10.8124 21.5178 12.4609 23.4498 14.6475 23.8886C14.2467 23.9985 13.8236 24.0566 13.3882 24.0566C13.0795 24.0566 12.7804 24.027 12.4887 23.9714C13.097 25.8702 14.8621 27.2524 16.9545 27.2913C15.3181 28.5737 13.257 29.3377 11.0167 29.3377C10.6316 29.3377 10.2502 29.3152 9.87689 29.2707C11.9914 30.6276 14.5049 31.4187 17.2044 31.4187C25.9976 31.4187 30.8063 24.1343 30.8063 17.8164C30.8063 17.6093 30.8017 17.4029 30.7924 17.1982C31.7272 16.5244 32.5376 15.6826 33.1783 14.724Z" fill="#F1F2F2"/>
</svg>
