<svg width="41" height="41" viewBox="0 0 41 41" fill="none" xmlns="http://www.w3.org/2000/svg">
<circle cx="20.9263" cy="20.3511" r="20" fill="#E02F2F"/>
<path d="M32.8268 15.1726C32.8268 15.1726 32.59 13.3862 31.8619 12.5997C30.938 11.5687 29.9032 11.5626 29.4287 11.5042C26.0298 11.2407 20.9319 11.2407 20.9319 11.2407H20.9205C20.9205 11.2407 15.8225 11.2407 12.4244 11.5042C11.9499 11.5626 10.9159 11.5687 9.99119 12.5997C9.26389 13.3862 9.02627 15.1726 9.02627 15.1726C9.02627 15.1726 8.78333 17.2687 8.78333 19.3648V21.3296C8.78333 23.4272 9.02627 25.5226 9.02627 25.5226C9.02627 25.5226 9.26313 27.3082 9.99119 28.0932C10.9159 29.1242 12.1283 29.0931 12.6689 29.2009C14.6116 29.3998 20.9266 29.4613 20.9266 29.4613C20.9266 29.4613 26.0298 29.4522 29.4287 29.1917C29.9032 29.131 30.938 29.1249 31.8619 28.094C32.5892 27.309 32.8268 25.5233 32.8268 25.5233C32.8268 25.5233 33.0698 23.4272 33.0698 21.3303V19.3656C33.0698 17.2687 32.8268 15.1726 32.8268 15.1726Z" fill="white"/>
<path d="M17.8944 15.7957V24.9059L25.4863 20.3508L17.8944 15.7957Z" fill="#E02F2F"/>
</svg>
