<svg width="41" height="41" viewBox="0 0 41 41" fill="none" xmlns="http://www.w3.org/2000/svg">
<g clip-path="url(#clip0_406_2200)">
<path d="M20.9263 40.3511C9.88227 40.3511 0.92627 31.3951 0.92627 20.3511C0.92627 9.30707 9.88227 0.351074 20.9263 0.351074C31.9703 0.351074 40.9263 9.30707 40.9263 20.3511C40.9263 31.3951 31.9703 40.3511 20.9263 40.3511Z" fill="url(#paint0_linear_406_2200)"/>
<path d="M20.9246 9.15873C24.5686 9.15873 25.0006 9.17073 26.4406 9.23873C27.7726 9.29873 28.4966 9.52273 28.9766 9.71073C29.6126 9.95873 30.0686 10.2547 30.5446 10.7307C31.0206 11.2067 31.3166 11.6627 31.5646 12.2987C31.7526 12.7787 31.9726 13.5027 32.0366 14.8347C32.1006 16.2747 32.1166 16.7067 32.1166 20.3507C32.1166 23.9947 32.1046 24.4267 32.0366 25.8667C31.9766 27.1987 31.7526 27.9227 31.5646 28.4027C31.3166 29.0387 31.0206 29.4947 30.5446 29.9707C30.0686 30.4467 29.6126 30.7427 28.9766 30.9907C28.4966 31.1787 27.7726 31.3987 26.4406 31.4627C25.0006 31.5267 24.5686 31.5427 20.9246 31.5427C17.2806 31.5427 16.8486 31.5307 15.4086 31.4627C14.0766 31.4027 13.3526 31.1787 12.8726 30.9907C12.2366 30.7427 11.7806 30.4467 11.3046 29.9707C10.8286 29.4947 10.5326 29.0387 10.2846 28.4027C10.0966 27.9227 9.87655 27.1987 9.81255 25.8667C9.74855 24.4267 9.73255 23.9947 9.73255 20.3507C9.73255 16.7067 9.74455 16.2747 9.81255 14.8347C9.87255 13.5027 10.0966 12.7787 10.2846 12.2987C10.5326 11.6627 10.8286 11.2067 11.3046 10.7307C11.7806 10.2547 12.2366 9.95873 12.8726 9.71073C13.3526 9.52273 14.0766 9.30273 15.4086 9.23873C16.8486 9.17073 17.2806 9.15873 20.9246 9.15873ZM20.9246 6.69873C17.2166 6.69873 16.7526 6.71473 15.2966 6.78273C13.8446 6.85073 12.8526 7.07873 11.9806 7.41873C11.0846 7.76273 10.3206 8.23073 9.56455 8.99073C8.80455 9.75073 8.34055 10.5107 7.98855 11.4107C7.65255 12.2787 7.42055 13.2707 7.35255 14.7267C7.28455 16.1827 7.26855 16.6467 7.26855 20.3547C7.26855 24.0627 7.28455 24.5267 7.35255 25.9827C7.42055 27.4347 7.64855 28.4267 7.98855 29.2987C8.33655 30.1907 8.80455 30.9547 9.56455 31.7107C10.3246 32.4707 11.0846 32.9347 11.9846 33.2867C12.8526 33.6227 13.8446 33.8547 15.3006 33.9227C16.7566 33.9907 17.2206 34.0067 20.9286 34.0067C24.6366 34.0067 25.1006 33.9907 26.5566 33.9227C28.0086 33.8547 29.0006 33.6267 29.8726 33.2867C30.7646 32.9387 31.5286 32.4707 32.2846 31.7107C33.0446 30.9507 33.5086 30.1907 33.8606 29.2907C34.1966 28.4227 34.4286 27.4307 34.4966 25.9747C34.5646 24.5187 34.5806 24.0547 34.5806 20.3467C34.5806 16.6387 34.5646 16.1747 34.4966 14.7187C34.4286 13.2667 34.2006 12.2747 33.8606 11.4027C33.5126 10.5107 33.0446 9.74673 32.2846 8.99073C31.5246 8.23073 30.7646 7.76673 29.8646 7.41473C28.9966 7.07873 28.0046 6.84673 26.5486 6.77873C25.0966 6.71473 24.6326 6.69873 20.9246 6.69873Z" fill="white"/>
<path d="M20.9248 13.3389C17.0528 13.3389 13.9128 16.4789 13.9128 20.3509C13.9128 24.2229 17.0528 27.3629 20.9248 27.3629C24.7968 27.3629 27.9368 24.2229 27.9368 20.3509C27.9368 16.4789 24.7968 13.3389 20.9248 13.3389ZM20.9248 24.9029C18.4128 24.9029 16.3728 22.8669 16.3728 20.3509C16.3728 17.8349 18.4128 15.7989 20.9248 15.7989C23.4368 15.7989 25.4768 17.8349 25.4768 20.3509C25.4768 22.8669 23.4368 24.9029 20.9248 24.9029Z" fill="white"/>
<path d="M28.2124 14.7021C29.1182 14.7021 29.8524 13.9679 29.8524 13.0621C29.8524 12.1564 29.1182 11.4221 28.2124 11.4221C27.3067 11.4221 26.5724 12.1564 26.5724 13.0621C26.5724 13.9679 27.3067 14.7021 28.2124 14.7021Z" fill="white"/>
</g>
<defs>
<linearGradient id="paint0_linear_406_2200" x1="6.78413" y1="34.4932" x2="35.0684" y2="6.20893" gradientUnits="userSpaceOnUse">
<stop stop-color="#FFD521"/>
<stop offset="0.0551048" stop-color="#FFD020"/>
<stop offset="0.1241" stop-color="#FEC01E"/>
<stop offset="0.2004" stop-color="#FCA71B"/>
<stop offset="0.2821" stop-color="#FA8316"/>
<stop offset="0.3681" stop-color="#F85510"/>
<stop offset="0.4563" stop-color="#F51E09"/>
<stop offset="0.5" stop-color="#F30005"/>
<stop offset="0.5035" stop-color="#F20007"/>
<stop offset="0.5966" stop-color="#E1003B"/>
<stop offset="0.6879" stop-color="#D30067"/>
<stop offset="0.7757" stop-color="#C70088"/>
<stop offset="0.8589" stop-color="#BF00A0"/>
<stop offset="0.9357" stop-color="#BB00AF"/>
<stop offset="1" stop-color="#B900B4"/>
</linearGradient>
<clipPath id="clip0_406_2200">
<rect width="40" height="40" fill="white" transform="translate(0.92627 0.351074)"/>
</clipPath>
</defs>
</svg>
